<svg width="72" height="72" viewBox="0 0 72 72" fill="none" xmlns="http://www.w3.org/2000/svg">
<rect width="72" height="72" fill="#4E6780"/>
<path d="M42.6667 31H29.3333C23.8105 31 19.3333 35.4772 19.3333 41C19.3333 46.5228 23.8105 51 29.3333 51H42.6667C48.1895 51 52.6667 46.5228 52.6667 41C52.6667 35.4772 48.1895 31 42.6667 31Z" fill="white" stroke="white" stroke-width="2" stroke-linejoin="bevel"/>
<path d="M29.3333 37.6665V44.3332" stroke="#4E6780" stroke-width="2" stroke-linecap="square" stroke-linejoin="bevel"/>
<path d="M26 41H32.6667" stroke="#4E6780" stroke-width="2" stroke-linecap="square" stroke-linejoin="bevel"/>
<path d="M36 29.3335V24.0954H42.6667V19.3335" stroke="white" stroke-width="2" stroke-linecap="square" stroke-linejoin="bevel"/>
<path d="M42.6667 44.3332C44.5076 44.3332 46 42.8408 46 40.9998C46 39.1589 44.5076 37.6665 42.6667 37.6665C40.8258 37.6665 39.3333 39.1589 39.3333 40.9998C39.3333 42.8408 40.8258 44.3332 42.6667 44.3332Z" fill="#4E6780" stroke="#4E6780" stroke-width="2" stroke-linejoin="bevel"/>
</svg>
