<svg width="49" height="48" viewBox="0 0 49 48" fill="none" xmlns="http://www.w3.org/2000/svg">
<rect width="48.0342" height="48" fill="white"/>
<g clip-path="url(#clip0_153_3)">
<path d="M14.25 14.25H33.75C34.0373 14.25 34.3129 14.3641 34.5161 14.5673C34.7192 14.7705 34.8334 15.046 34.8334 15.3333V32.6667C34.8334 32.954 34.7192 33.2295 34.5161 33.4327C34.3129 33.6359 34.0373 33.75 33.75 33.75H14.25C13.9627 33.75 13.6872 33.6359 13.484 33.4327C13.2808 33.2295 13.1667 32.954 13.1667 32.6667V15.3333C13.1667 15.046 13.2808 14.7705 13.484 14.5673C13.6872 14.3641 13.9627 14.25 14.25 14.25ZM24.065 23.6566L17.1187 17.7578L15.7158 19.4088L24.0791 26.5101L32.2919 19.4034L30.8749 17.7643L24.065 23.6566Z" fill="#232323"/>
</g>
<defs>
<clipPath id="clip0_153_3">
<rect width="26" height="26" fill="white" transform="translate(11 11)"/>
</clipPath>
</defs>
</svg>
