<svg width="15" height="20" viewBox="0 0 15 20" fill="none" xmlns="http://www.w3.org/2000/svg">
<path fill-rule="evenodd" clip-rule="evenodd" d="M14.7727 7.10145L14.7726 7.14009C14.7725 7.15636 14.7724 7.17264 14.7722 7.18891C14.7725 7.20791 14.7727 7.22709 14.7727 7.24636C14.7727 10.2794 12.4097 12.964 10.8285 14.7606C10.3697 15.2819 9.97672 15.7285 9.72635 16.087C8.83581 17.3624 8.36581 18.744 8.24208 19.2754C8.24208 19.6755 7.9099 20 7.49999 20C7.09008 20 6.7579 19.6755 6.7579 19.2754C6.63417 18.744 6.16417 17.3624 5.27363 16.087C5.02326 15.7285 4.63026 15.2819 4.17145 14.7606C2.59026 12.964 0.227264 10.2794 0.227264 7.24636C0.227264 7.22709 0.227446 7.20791 0.22781 7.18891C0.227446 7.15982 0.227264 7.13064 0.227264 7.10145C0.227264 3.17942 3.48336 0 7.49999 0C11.5166 0 14.7727 3.17942 14.7727 7.10145ZM7.49999 9.71018C9.05745 9.71018 10.32 8.47727 10.32 6.95655C10.32 5.43573 9.05745 4.2029 7.49999 4.2029C5.94254 4.2029 4.67999 5.43573 4.67999 6.95655C4.67999 8.47727 5.94254 9.71018 7.49999 9.71018Z" fill="#34A851"/>
<path d="M13.9594 3.83497C13.0689 2.15942 11.5146 0.874251 9.63672 0.311523L5.4599 5.05582C5.97345 4.53039 6.69763 4.20306 7.50017 4.20306C9.05763 4.20306 10.3202 5.43591 10.3202 6.95664C10.3202 7.5771 10.1101 8.14955 9.75554 8.61001L13.9594 3.83497Z" fill="#4285F5"/>
<path d="M4.25556 14.8569C4.22765 14.8251 4.19956 14.7932 4.17119 14.7611C3.12892 13.5768 1.74694 12.0067 0.925964 10.2052L5.26719 5.27441C4.89883 5.73969 4.67965 6.32332 4.67965 6.95696C4.67965 8.47769 5.94228 9.7106 7.49974 9.7106C8.28865 9.7106 9.00192 9.39423 9.51374 8.88432L4.25556 14.8569Z" fill="#F9BB0E"/>
<path d="M1.94806 2.51416C0.874601 3.75164 0.227264 5.35278 0.227264 7.10151C0.227264 7.13069 0.227446 7.15987 0.22781 7.18896C0.227446 7.20796 0.227264 7.22714 0.227264 7.24641C0.227264 8.28014 0.501774 9.27351 0.926256 10.2049L5.26017 5.28232L1.94806 2.51416Z" fill="#E74335"/>
<path d="M9.63626 0.3114C8.96071 0.108982 8.24326 0 7.49971 0C5.27398 0 3.2818 0.976245 1.94778 2.51412L5.25989 5.28227L5.26708 5.27409C5.32735 5.198 5.39153 5.125 5.45944 5.05555L9.63626 0.3114Z" fill="#1A73E6"/>
</svg>
