<svg width="40" height="40" viewBox="0 0 40 40" fill="none" xmlns="http://www.w3.org/2000/svg">
<path fill-rule="evenodd" clip-rule="evenodd" d="M10.0827 28.3035L8.64592 28.7346C7.21588 29.1636 6.16789 29.6446 5.51089 30.1106C5.18595 30.3411 5.00399 30.5348 4.91112 30.6709C4.86687 30.7358 4.84801 30.78 4.84019 30.8031C4.83322 30.8237 4.83333 30.8321 4.83334 30.8332L4.83334 30.8333L4.83334 30.8334C4.83333 30.8345 4.83322 30.843 4.84019 30.8636C4.84801 30.8867 4.86688 30.9309 4.91113 30.9957C5.00399 31.1319 5.18595 31.3256 5.51089 31.5561C6.16789 32.022 7.21588 32.5031 8.64592 32.9321C11.4869 33.7844 15.5016 34.3333 20 34.3333C24.4985 34.3333 28.5131 33.7844 31.3541 32.9321C32.7841 32.5031 33.8321 32.022 34.4891 31.5561C34.8141 31.3256 34.996 31.1319 35.0889 30.9957C35.1331 30.9309 35.152 30.8867 35.1598 30.8636C35.167 30.8423 35.1667 30.834 35.1667 30.8333V30.8332C35.1667 30.8321 35.1668 30.8237 35.1598 30.8031C35.152 30.78 35.1331 30.7358 35.0889 30.6709C34.996 30.5348 34.8141 30.3411 34.4891 30.1106C33.8321 29.6446 32.7841 29.1636 31.3541 28.7346L29.9173 28.3035L30.7794 25.4301L32.2161 25.8611C33.8022 26.3369 35.1949 26.9333 36.2247 27.6636C37.2155 28.3664 38.1667 29.4157 38.1667 30.8333C38.1667 32.2509 37.2155 33.3003 36.2247 34.003C35.195 34.7334 33.8022 35.3298 32.2161 35.8056C29.025 36.7629 24.7063 37.3333 20 37.3333C15.2937 37.3333 10.975 36.7629 7.78387 35.8056C6.19784 35.3298 4.80505 34.7334 3.7753 34.003C2.7845 33.3003 1.83334 32.2509 1.83334 30.8333C1.83334 29.4158 2.78452 28.3664 3.7753 27.6636C4.80506 26.9333 6.19783 26.3369 7.78386 25.8611L9.2206 25.4301L10.0827 28.3035Z" fill="#4E6780"/>
<path fill-rule="evenodd" clip-rule="evenodd" d="M7.5 13.9015C7.5 7.10566 13.1356 1.66663 20 1.66663C26.8644 1.66663 32.5 7.10566 32.5 13.9015C32.5 18.6803 29.3823 22.9078 26.6132 25.7637C25.1914 27.23 23.7756 28.4221 22.7173 29.247C22.1868 29.6605 21.7428 29.9844 21.4281 30.207C21.2707 30.3183 21.1454 30.4046 21.0576 30.4641C21.0137 30.4939 20.9792 30.5171 20.9547 30.5334L20.9255 30.5528L20.9167 30.5586L20.9137 30.5605C20.9133 30.5608 20.9118 30.5618 20 29.1666C19.0882 30.5618 19.0878 30.5615 19.0874 30.5612L19.0833 30.5586L19.0745 30.5528L19.0453 30.5334C19.0208 30.5171 18.9863 30.4939 18.9424 30.4641C18.8546 30.4046 18.7293 30.3183 18.5719 30.207C18.2572 29.9844 17.8132 29.6605 17.2827 29.247C16.2244 28.4221 14.8086 27.23 13.3868 25.7637C10.6177 22.9078 7.5 18.6803 7.5 13.9015ZM20 29.1666L19.0874 30.5612L20.9118 30.5618L20 29.1666ZM20 27.1257C20.1978 26.9793 20.4223 26.8095 20.6681 26.618C21.6411 25.8595 22.9336 24.7701 24.2201 23.4433C26.8677 20.7128 29.1667 17.3078 29.1667 13.9015C29.1667 9.02399 25.1018 4.99996 20 4.99996C14.8982 4.99996 10.8333 9.02399 10.8333 13.9015C10.8333 17.3078 13.1323 20.7128 15.7799 23.4433C17.0664 24.7701 18.3589 25.8595 19.3319 26.618C19.5777 26.8095 19.8022 26.9793 20 27.1257Z" fill="#4E6780"/>
<path fill-rule="evenodd" clip-rule="evenodd" d="M30.8333 13.9015C30.8333 22.0867 20 29.1667 20 29.1667C20 29.1667 9.16666 22.0867 9.16666 13.9015C9.16666 8.06491 14.0169 3.33337 20 3.33337C25.9831 3.33337 30.8333 8.06491 30.8333 13.9015ZM24.1667 14.1667C24.1667 16.4679 22.3012 18.3334 20 18.3334C17.6988 18.3334 15.8333 16.4679 15.8333 14.1667C15.8333 11.8655 17.6988 10 20 10C22.3012 10 24.1667 11.8655 24.1667 14.1667Z" fill="#4E6780"/>
</svg>
