<svg width="72" height="72" viewBox="0 0 72 72" fill="none" xmlns="http://www.w3.org/2000/svg">
<rect width="72" height="72" fill="#4E6780"/>
<path d="M46 38.5002V22.6668C46 20.8252 47.4917 19.3335 49.3333 19.3335H52.6667" stroke="white" stroke-width="3" stroke-miterlimit="2" stroke-linecap="square" stroke-linejoin="bevel"/>
<path d="M24.3333 38.5002V22.6668C24.3333 20.8252 25.825 19.3335 27.6667 19.3335H31" stroke="white" stroke-width="3" stroke-miterlimit="2" stroke-linecap="square" stroke-linejoin="bevel"/>
<path d="M24.3333 26H46" stroke="white" stroke-width="3" stroke-miterlimit="2" stroke-linecap="square" stroke-linejoin="bevel"/>
<path d="M24.3333 32.6665H46" stroke="white" stroke-width="3" stroke-miterlimit="2" stroke-linecap="square" stroke-linejoin="bevel"/>
<path d="M19.3333 44.3335L21.4167 45.4597C22.75 46.1803 24.25 46.1803 25.5833 45.4597C26.9167 44.7389 28.4167 44.7389 29.75 45.4597C31.0833 46.1803 32.5833 46.1803 33.9167 45.4597C35.25 44.7389 36.75 44.7389 38.0833 45.4597C39.4167 46.1803 40.9167 46.1803 42.25 45.4597C43.5833 44.7389 45.0833 44.7389 46.4167 45.4597C47.75 46.1803 49.25 46.1803 50.5833 45.4597L52.6667 44.3335" stroke="white" stroke-width="3" stroke-miterlimit="2" stroke-linecap="square" stroke-linejoin="bevel"/>
<path d="M19.3333 49.3335L21.4167 50.4597C22.75 51.1803 24.25 51.1803 25.5833 50.4597C26.9167 49.7389 28.4167 49.7389 29.75 50.4597C31.0833 51.1803 32.5833 51.1803 33.9167 50.4597C35.25 49.7389 36.75 49.7389 38.0833 50.4597C39.4167 51.1803 40.9167 51.1803 42.25 50.4597C43.5833 49.7389 45.0833 49.7389 46.4167 50.4597C47.75 51.1803 49.25 51.1803 50.5833 50.4597L52.6667 49.3335" stroke="white" stroke-width="3" stroke-miterlimit="2" stroke-linecap="square" stroke-linejoin="bevel"/>
</svg>
