<svg width="80" height="67" viewBox="0 0 80 67" fill="none" xmlns="http://www.w3.org/2000/svg">
<path fill-rule="evenodd" clip-rule="evenodd" d="M28.8969 0.596819C11.7338 11.6191 2.19892 24.4483 0.292284 39.0841C-2.67592 61.8686 17.6998 73.021 28.024 63.0006C38.3481 52.9803 32.1594 40.2617 24.6837 36.7851C17.208 33.3083 12.6363 34.5192 13.4337 29.8732C14.2312 25.2275 24.8669 12.3464 34.2108 6.34755C34.8308 5.82039 35.0666 4.79752 34.4697 4.02148C34.077 3.51119 33.3069 2.51032 32.1594 1.0188C31.1559 -0.285473 30.1946 -0.236653 28.8969 0.596819Z" fill="#4E6780"/>
<path fill-rule="evenodd" clip-rule="evenodd" d="M74.0817 0.596819C56.9188 11.6191 47.3839 24.4483 45.4772 39.0841C42.5091 61.8686 62.8848 73.021 73.209 63.0006C83.5331 52.9803 77.3444 40.2617 69.8687 36.7851C62.393 33.3083 57.8211 34.5192 58.6188 29.8732C59.4162 25.2275 70.052 12.3464 79.3959 6.34755C80.0158 5.82039 80.2517 4.79752 79.6545 4.02148C79.2621 3.51119 78.492 2.51032 77.3444 1.0188C76.3409 -0.285473 75.3796 -0.236653 74.0817 0.596819Z" fill="#4E6780"/>
</svg>
