<svg width="72" height="72" viewBox="0 0 72 72" fill="none" xmlns="http://www.w3.org/2000/svg">
<rect width="72" height="72" fill="#4E6780"/>
<path d="M19.3333 46C19.3333 46 23.5 43.5 27.6667 43.5C33.748 43.5 38.252 48.5 44.3333 48.5C48.5 48.5 52.6667 46 52.6667 46" stroke="white" stroke-width="3" stroke-linecap="square" stroke-linejoin="bevel"/>
<path d="M19.3333 36C19.3333 36 23.5 33.5 27.6667 33.5C33.748 33.5 38.252 38.5 44.3333 38.5C48.5 38.5 52.6667 36 52.6667 36" stroke="white" stroke-width="3" stroke-linecap="square" stroke-linejoin="bevel"/>
<path d="M19.3333 26C19.3333 26 23.5 23.5 27.6667 23.5C33.748 23.5 38.252 28.5 44.3333 28.5C48.5 28.5 52.6667 26 52.6667 26" stroke="white" stroke-width="3" stroke-linecap="square" stroke-linejoin="bevel"/>
</svg>
