<svg width="72" height="72" viewBox="0 0 72 72" fill="none" xmlns="http://www.w3.org/2000/svg">
<rect width="72" height="72" fill="#4E6780"/>
<g clip-path="url(#clip0_15_215)">
<path d="M36 46.2918C41.6839 46.2918 46.2917 41.6841 46.2917 36.0002C46.2917 30.3162 41.6839 25.7085 36 25.7085C30.3161 25.7085 25.7083 30.3162 25.7083 36.0002C25.7083 41.6841 30.3161 46.2918 36 46.2918Z" fill="white" stroke="white" stroke-width="2" stroke-linejoin="bevel"/>
<path d="M36 21.7498C37.093 21.7498 37.9792 20.8637 37.9792 19.7707C37.9792 18.6776 37.093 17.7915 36 17.7915C34.9069 17.7915 34.0208 18.6776 34.0208 19.7707C34.0208 20.8637 34.9069 21.7498 36 21.7498Z" fill="white"/>
<path d="M47.4792 26.4998C48.5722 26.4998 49.4583 25.6137 49.4583 24.5207C49.4583 23.4276 48.5722 22.5415 47.4792 22.5415C46.3861 22.5415 45.5 23.4276 45.5 24.5207C45.5 25.6137 46.3861 26.4998 47.4792 26.4998Z" fill="white"/>
<path d="M52.2292 37.9793C53.3222 37.9793 54.2083 37.0932 54.2083 36.0002C54.2083 34.9071 53.3222 34.021 52.2292 34.021C51.1361 34.021 50.25 34.9071 50.25 36.0002C50.25 37.0932 51.1361 37.9793 52.2292 37.9793Z" fill="white"/>
<path d="M47.4792 49.4583C48.5722 49.4583 49.4583 48.5722 49.4583 47.4792C49.4583 46.3861 48.5722 45.5 47.4792 45.5C46.3861 45.5 45.5 46.3861 45.5 47.4792C45.5 48.5722 46.3861 49.4583 47.4792 49.4583Z" fill="white"/>
<path d="M36 54.2083C37.093 54.2083 37.9792 53.3222 37.9792 52.2292C37.9792 51.1361 37.093 50.25 36 50.25C34.9069 50.25 34.0208 51.1361 34.0208 52.2292C34.0208 53.3222 34.9069 54.2083 36 54.2083Z" fill="white"/>
<path d="M24.5208 49.4583C25.6139 49.4583 26.5 48.5722 26.5 47.4792C26.5 46.3861 25.6139 45.5 24.5208 45.5C23.4278 45.5 22.5417 46.3861 22.5417 47.4792C22.5417 48.5722 23.4278 49.4583 24.5208 49.4583Z" fill="white"/>
<path d="M19.7708 37.9793C20.8639 37.9793 21.75 37.0932 21.75 36.0002C21.75 34.9071 20.8639 34.021 19.7708 34.021C18.6778 34.021 17.7917 34.9071 17.7917 36.0002C17.7917 37.0932 18.6778 37.9793 19.7708 37.9793Z" fill="white"/>
<path d="M24.5208 26.4998C25.6139 26.4998 26.5 25.6137 26.5 24.5207C26.5 23.4276 25.6139 22.5415 24.5208 22.5415C23.4278 22.5415 22.5417 23.4276 22.5417 24.5207C22.5417 25.6137 23.4278 26.4998 24.5208 26.4998Z" fill="white"/>
</g>
<defs>
<clipPath id="clip0_15_215">
<rect width="38" height="38" fill="white" transform="translate(17 17)"/>
</clipPath>
</defs>
</svg>
