<svg width="49" height="48" viewBox="0 0 49 48" fill="none" xmlns="http://www.w3.org/2000/svg">
<rect width="48.0342" height="48" fill="white"/>
<path d="M20.498 15.8429C20.8613 15.8429 21.196 16.0399 21.3724 16.3575L22.5956 18.5609C22.7557 18.8494 22.7633 19.1984 22.6157 19.4935L21.4373 21.8504C21.4373 21.8504 21.7788 23.6061 23.208 25.0353C24.6372 26.4645 26.387 26.8001 26.387 26.8001L28.7435 25.6219C29.0388 25.4742 29.388 25.4818 29.6766 25.6423L31.8863 26.8708C32.2036 27.0472 32.4004 27.3817 32.4004 27.7448V30.2815C32.4004 31.5734 31.2004 32.5064 29.9764 32.0934C27.4624 31.2451 23.5601 29.63 21.0867 27.1566C18.6132 24.6832 16.9982 20.7808 16.1499 18.2669C15.7369 17.0428 16.6699 15.8429 17.9617 15.8429H20.498Z" fill="#4E6780" stroke="#4E6780" stroke-width="2" stroke-linejoin="bevel"/>
</svg>
