<svg width="24" height="20" viewBox="0 0 24 20" fill="none" xmlns="http://www.w3.org/2000/svg">
<path d="M4.77427 7.7004C5.23428 3.56034 8.03266 2.71699 9.37435 1.95031C10.3327 1.75864 12.0194 0.800293 13.3994 0.800293C15.1244 0.800293 16.2745 0.800293 18.5745 1.95031C20.8745 3.10033 21.4495 5.40037 22.5996 6.55039C23.7496 7.7004 22.5996 10.5755 22.0246 12.3005C21.4495 14.0255 18.5745 16.3255 17.9995 16.9006C17.4245 17.4756 12.2494 18.0506 9.94936 18.0506C8.49469 18.0506 5.15761 16.5172 3.62426 16.3255L1.32422 13.4505C2.0909 13.8338 4.31427 11.8405 4.77427 7.7004Z" fill="white"/>
<path d="M13.5087 0.0238815C13.293 0.0267565 13.0774 0.03634 12.8618 0.0526319C10.787 0.201176 8.74568 0.938147 7.04557 2.28271C4.94296 3.94257 3.88685 6.42757 3.69518 9.03907H3.6971C3.60797 10.2083 3.47668 11.0995 3.24764 11.5595C3.01955 12.0186 2.84513 12.171 2.05928 12.1719C1.00797 12.1652 0.36588 13.4619 1.00414 14.2956C2.20016 15.8836 3.78527 16.8879 5.52755 17.5195C5.50718 17.6356 5.4966 17.7533 5.49592 17.8712C5.49605 18.1479 5.55069 18.4219 5.65672 18.6775C5.76276 18.933 5.91811 19.1652 6.1139 19.3608C6.3097 19.5563 6.54209 19.7113 6.79782 19.817C7.05354 19.9227 7.32759 19.977 7.60429 19.9767C8.07374 19.9756 8.52937 19.8177 8.89884 19.5281C9.26832 19.2385 9.53046 18.8338 9.64366 18.3782C10.8962 18.4932 12.1421 18.5123 13.3084 18.474C13.6572 18.4625 14.008 18.4309 14.3568 18.3858C14.4714 18.8399 14.7341 19.2427 15.1032 19.5308C15.4723 19.8189 15.927 19.9758 16.3952 19.9767C16.6719 19.977 16.946 19.9227 17.2017 19.817C17.4574 19.7113 17.6898 19.5563 17.8856 19.3608C18.0814 19.1652 18.2368 18.933 18.3428 18.6775C18.4488 18.4219 18.5035 18.1479 18.5036 17.8712C18.5032 17.6098 18.4541 17.3508 18.3589 17.1074C19.1488 16.6985 19.8894 16.2004 20.566 15.6229C22.5727 13.8912 23.9307 11.4072 23.7304 8.52731C23.6231 6.87608 23.0011 5.36668 22.0552 4.11124C20.0015 1.37036 16.7556 -0.0182859 13.5087 0.0238815ZM13.8594 1.49974C14.1584 1.50741 14.4565 1.52561 14.7536 1.56011C17.1303 1.83612 19.3939 2.9938 20.887 4.98813C21.6815 6.04231 22.1856 7.27571 22.2728 8.62315V8.62602C22.4386 10.9999 21.348 13.0181 19.6114 14.517C18.9214 15.1063 18.156 15.601 17.3354 15.9881C17.0439 15.8416 16.7224 15.7648 16.3962 15.7638C16.0158 15.7642 15.6427 15.8676 15.3164 16.063C14.99 16.2584 14.7227 16.5385 14.5427 16.8736C14.119 16.9493 13.6906 16.996 13.2605 17.0135C11.9902 17.0586 10.7183 17.0112 9.45486 16.8717C9.2748 16.5372 9.00765 16.2577 8.68171 16.0627C8.35577 15.8676 7.98316 15.7644 7.60333 15.7638C7.13571 15.7643 6.68155 15.9204 6.31244 16.2075C4.75416 15.6776 3.36264 14.8447 2.3305 13.5606C3.33868 13.4686 4.16669 12.9856 4.55291 12.2112C4.97746 11.3592 5.06083 10.3453 5.15187 9.14641V9.14449C5.31959 6.85308 6.21564 4.79742 7.95025 3.4289H7.95217C9.64845 2.08529 11.7645 1.45278 13.8594 1.49974ZM10.8339 5.94456C10.1746 5.94456 9.63407 6.49944 9.63407 7.1885C9.63407 7.87851 10.1746 8.43148 10.8339 8.43148C11.4942 8.43148 12.0338 7.87851 12.0338 7.1885C12.0338 6.50711 11.4942 5.94456 10.8339 5.94456ZM16.1183 5.94456C15.4589 5.94456 14.9203 6.49944 14.9203 7.1885C14.9127 7.87851 15.4513 8.43148 16.1183 8.43148C16.7776 8.43148 17.3181 7.87851 17.3181 7.1885C17.3181 6.50711 16.7776 5.94456 16.1183 5.94456ZM9.98866 9.78946C9.87692 9.79112 9.76726 9.8199 9.6691 9.87332C9.57094 9.92674 9.48723 10.0032 9.42515 10.0961C9.37307 10.1706 9.33684 10.2549 9.3187 10.3439C9.30057 10.433 9.30092 10.5248 9.31973 10.6136C9.65036 12.3224 11.4041 13.6123 13.4061 13.6123H13.5259C14.5379 13.5816 15.4675 13.2836 16.2246 12.7287C16.9597 12.1959 17.4609 11.4675 17.6401 10.6807C17.6786 10.5009 17.6464 10.3132 17.55 10.1565C17.5037 10.079 17.4419 10.0118 17.3686 9.95901C17.2952 9.90626 17.2118 9.86911 17.1236 9.84983C17.0351 9.82815 16.9431 9.82436 16.8531 9.8387C16.7631 9.85303 16.6769 9.8852 16.5995 9.93332C16.5221 9.98144 16.4551 10.0445 16.4024 10.1189C16.3497 10.1933 16.3124 10.2774 16.2927 10.3664C16.0818 11.2576 15.0478 12.1872 13.4809 12.2256C11.9744 12.2697 10.8569 11.2806 10.6768 10.351C10.6465 10.1914 10.561 10.0476 10.4351 9.94482C10.3092 9.84209 10.1511 9.78707 9.98866 9.78946Z" fill="black"/>
</svg>
