<svg width="49" height="48" viewBox="0 0 49 48" fill="none" xmlns="http://www.w3.org/2000/svg">
<rect width="48.0342" height="48" fill="white"/>
<g clip-path="url(#clip0_15_355)">
<path d="M13.171 34.8334L14.6357 29.4514C13.6706 27.7969 13.1635 25.9153 13.1667 24C13.1667 18.0168 18.0168 13.1667 24 13.1667C29.9833 13.1667 34.8333 18.0168 34.8333 24C34.8333 29.9833 29.9833 34.8334 24 34.8334C22.0855 34.8364 20.2047 34.3298 18.5508 33.3654L13.171 34.8334ZM20.0903 18.917C19.9504 18.9257 19.8137 18.9626 19.6883 19.0254C19.5708 19.0919 19.4635 19.1751 19.3698 19.2724C19.2398 19.3948 19.1662 19.5009 19.0871 19.6039C18.6867 20.1249 18.4713 20.7646 18.475 21.4217C18.4772 21.9525 18.6158 22.4693 18.8325 22.9524C19.2756 23.9296 20.0047 24.9642 20.9678 25.9229C21.1996 26.1537 21.426 26.3855 21.6698 26.6011C22.8651 27.6535 24.2895 28.4125 25.8298 28.8176L26.4462 28.9119C26.6466 28.9227 26.847 28.9075 27.0485 28.8978C27.364 28.8815 27.6721 28.7961 27.9509 28.6475C28.1308 28.5522 28.2153 28.5045 28.3658 28.4092C28.3658 28.4092 28.4124 28.3789 28.5013 28.3117C28.6475 28.2034 28.7374 28.1264 28.8588 27.9997C28.9487 27.9065 29.0267 27.7971 29.0863 27.6725C29.1708 27.4959 29.2553 27.159 29.2899 26.8784C29.3159 26.6639 29.3083 26.5469 29.3051 26.4744C29.3008 26.3584 29.2043 26.2382 29.0993 26.1873L28.4688 25.9045C28.4688 25.9045 27.5263 25.4939 26.951 25.2318C26.8904 25.2053 26.8254 25.1903 26.7593 25.1874C26.6851 25.1797 26.6102 25.1881 26.5396 25.2118C26.469 25.2355 26.4042 25.2741 26.3498 25.3249V25.3228C26.3443 25.3228 26.2718 25.3845 25.4885 26.3335C25.4435 26.3939 25.3816 26.4396 25.3106 26.4647C25.2396 26.4897 25.1628 26.4931 25.0898 26.4744C25.0193 26.4555 24.9501 26.4316 24.8829 26.4029C24.7486 26.3465 24.702 26.3249 24.6099 26.2848L24.6045 26.2826C23.9847 26.012 23.4109 25.6465 22.9037 25.1993C22.7672 25.0801 22.6404 24.9501 22.5104 24.8244C22.0842 24.4163 21.7128 23.9545 21.4054 23.4508L21.3415 23.3479C21.2956 23.2787 21.2585 23.2041 21.231 23.1258C21.1898 22.9665 21.2971 22.8387 21.2971 22.8387C21.2971 22.8387 21.5603 22.5505 21.6828 22.3945C21.7847 22.2649 21.8798 22.13 21.9677 21.9904C22.0955 21.7846 22.1356 21.5734 22.0684 21.4098C21.7651 20.6688 21.4509 19.931 21.1281 19.1987C21.0642 19.0535 20.8746 18.9495 20.7023 18.9289C20.6438 18.9224 20.5853 18.9159 20.5268 18.9116C20.3814 18.9044 20.2356 18.9069 20.0903 18.917Z" fill="#027353"/>
</g>
<defs>
<clipPath id="clip0_15_355">
<rect width="26" height="26" fill="white" transform="translate(11 11)"/>
</clipPath>
</defs>
</svg>
